#!OML:ASF X:\für Bonn\!DataBase\2005_08_12_Daniel\c3d\Daniel.ASF
:FULLY-SPECIFIED
:DEGREES
2353
root 1.46453 16.198 7.47939 -175.747 26.8322 551.738
lowerback 13.3242 -6.99362 5.73256
upperback 3.36729 -8.07655 1.51527
thorax -4.42229 -3.88724 -0.207599
lowerneck -9.15911 5.34367 1.37987
upperneck -1.78169 7.65841 -12.5725
head 1.66444 3.76457 -4.04164
rclavicle -9.0447e-014 -2.38542e-015
rhumerus -62.3217 10.0697 -88.9009
rradius 72.937
rwrist -0.233059
rhand -25.0226 30.0869
rfingers 7.12502
rthumb 1.48969 0.112397
lclavicle -9.0447e-014 -2.38542e-015
lhumerus -61.5748 -1.11051 98.1108
lradius 100.606
lwrist 10.036
lhand -10.3152 -13.936
lfingers 7.12502
lthumb 15.6801 15.4486
rfemur -22.2592 12.5389 16.7409
rtibia 46.0411
rfoot -22.6862 3.19346
rtoes -27.6634
lfemur -5.12183 1.3709 -19.7253
ltibia 96.2752
lfoot -4.76281 0.481146
ltoes 3.53045
2354
root 1.61521 16.1226 7.23767 -176.221 26.258 551.858
lowerback 13.7706 -6.81506 6.15748
upperback 3.52152 -7.7217 1.48567
thorax -4.54155 -3.70018 -0.495492
lowerneck -9.45165 5.25413 0.683644
upperneck -1.68441 7.62476 -12.1856
head 1.69014 3.748 -3.76696
rclavicle 2.42517e-014 7.95139e-015
rhumerus -61.0782 9.54565 -89.1245
rradius 73.2107
rwrist 1.40189
rhand -25.0288 29.8082
rfingers 7.12502
rthumb 1.48377 -0.166434
lclavicle 2.42517e-014 7.95139e-015
lhumerus -61.6016 -0.516415 98.2545
lradius 99.078
lwrist 9.92186
lhand -11.1242 -13.0676
lfingers 7.12502
lthumb 14.9008 16.3765
rfemur -20.6613 11.8001 17.1992
rtibia 46.6527
rfoot -24.5798 4.15499
rtoes -26.8956
lfemur -6.84996 1.7699 -19.1955
ltibia 98.814
lfoot -5.11343 0.0807959
ltoes 2.94533
2355
root 1.76263 16.0674 6.98814 -176.719 25.7176 551.935
lowerback 14.2072 -6.59998 6.46452
upperback 3.66485 -7.33416 1.45556
thorax -4.64429 -3.49712 -0.732881
lowerneck -9.22237 5.29552 0.452495
upperneck -1.98542 7.68208 -12.1563
head 1.54008 3.80503 -3.71707
rclavicle 1.98785e-014 -1.98785e-014
rhumerus -59.8184 9.13916 -89.451
rradius 73.6514
rwrist 3.05167
rhand -25.034 29.6395
rfingers 7.12502
rthumb 1.47873 -0.335077
lclavicle 1.98785e-014 -1.98785e-014
lhumerus -61.7839 -0.0559445 98.4122
lradius 97.8127
lwrist 9.79921
lhand -11.9521 -11.9125
lfingers 7.12502
lthumb 14.1031 17.5889
rfemur -18.8415 11.0949 17.6568
rtibia 46.9294
rfoot -26.2858 4.76877
rtoes -26.7487
lfemur -8.49574 2.14791 -18.8413
ltibia 100.928
lfoot -5.35616 -0.406531
ltoes 2.13016
2356
root 1.90594 16.0272 6.73602 -177.137 25.1353 551.977
lowerback 14.5513 -6.38827 6.67639
upperback 3.78046 -6.97467 1.43117
thorax -4.7116 -3.30965 -0.919515
lowerneck -8.913 5.38095 0.482523
upperneck -2.36396 7.77395 -12.3661
head 1.37958 3.88287 -3.80179
rclavicle -6.36111e-015 -1.59028e-014
rhumerus -58.5096 8.85412 -89.8303
rradius 74.1748
rwrist 4.63622
rhand -25.1304 29.6698
rfingers 7.12502
rthumb 1.38566 -0.305405
lclavicle -6.36111e-015 -1.59028e-014
lhumerus -62.0402 0.334583 98.5489
lradius 96.725
lwrist 9.59984
lhand -12.8648 -10.825
lfingers 7.12502
lthumb 13.2235 18.7356
rfemur -16.9206 10.6458 18.0867
rtibia 46.8549
rfoot -27.8078 4.99206
rtoes -26.6204
lfemur -10.2845 2.58057 -18.522
ltibia 102.776
lfoot -5.5884 -0.897391
ltoes 1.24773
2357
root 2.04796 16.0002 6.48379 -177.574 24.5644 551.911
lowerback 14.8986 -6.15426 6.67185
upperback 3.83816 -6.62299 1.39956
thorax -4.81637 -3.1298 -0.994005
lowerneck -8.38448 5.5431 0.818972
upperneck -2.77813 7.93663 -12.8177
head 1.20318 4.0002 -4.03369
rclavicle 5.58585e-014 -3.33958e-014
rhumerus -57.2745 8.9548 -90.3608
rradius 74.8753
rwrist 5.71503
rhand -25.2532 29.7412
rfingers 7.12502
rthumb 1.26705 -0.234789
lclavicle 5.58585e-014 -3.33958e-014
lhumerus -62.6559 0.654696 98.6583
lradius 96.0105
lwrist 9.49861
lhand -13.6002 -10.0219
lfingers 7.12502
lthumb 12.5146 19.5833
rfemur -14.8825 10.3077 18.4293
rtibia 46.4862
rfoot -29.0721 4.94847
rtoes -26.5307
lfemur -12.0553 3.10361 -18.3343
ltibia 104.286
lfoot -5.78579 -1.38797
ltoes 0.478173
2358
root 2.18487 15.9923 6.22804 -177.967 23.9801 551.817
lowerback 15.1826 -5.8817 6.60749
upperback 3.86783 -6.239 1.37039
thorax -4.90731 -2.93627 -1.04705
lowerneck -7.65894 5.71309 1.38952
upperneck -3.24415 8.08755 -13.4474
head 0.99701 4.11876 -4.38557
rclavicle -3.37934e-015 -2.8625e-014
rhumerus -56.2408 9.19921 -90.9701
rradius 75.784
rwrist 6.24974
rhand -25.4344 29.9235
rfingers 7.12502
rthumb 1.09206 -0.0534214
lclavicle -3.37934e-015 -2.8625e-014
lhumerus -63.5354 0.868982 98.8222
lradius 95.6585
lwrist 9.35983
lhand -14.0892 -9.57876
lfingers 7.12502
lthumb 12.0431 20.0547
rfemur -12.7591 10.0293 18.7565
rtibia 45.8389
rfoot -30.0428 4.66795
rtoes -26.4885
lfemur -13.8281 3.60854 -18.2486
ltibia 105.469
lfoot -6.05377 -1.7792
ltoes 0.288715
